<svg width="786" height="217" viewBox="0 0 786 217" fill="none" xmlns="http://www.w3.org/2000/svg">
<path d="M785.03 30.89C551.87 20.57 569.5 -36.83 517.4 39.31C502.76 63.14 491.57 87.54 473.34 110.01C467.86 115.46 459.25 131.75 449.53 119.83C449.53 119.82 449.53 119.82 449.53 119.82C400.79 66.34 399.92 27.05 382.07 56.16C371.17 70.32 336.03 133.91 324.56 122.8C306.98 107.64 294.08 84.58 282.59 64.46C270.27 44.76 253.51 4.05001 223.87 0.500013C195.7 0.760013 125.33 26.15 0.440002 30.89C33.66 117.97 161.5 75.14 211.01 57.66C210.81 58.12 196.84 88.2 72.94 109.51C115.67 167.87 187.46 145.45 228.97 115.86C228.97 115.86 225.19 136.42 187.69 157.14C199.32 179.72 249.38 180.66 271 155.27C285.16 164.78 296.57 181.54 305.89 196.93C314.19 210.26 323.94 229.4 341.33 203.93C354.28 184.6 381.3 142.57 392.94 138.7C408.93 146.63 433.86 192.09 450.66 211.64C472.89 233.03 477.47 180.95 514.45 155.27C539.53 183.17 587.99 177.31 597.76 157.14C560.3 136.44 556.49 115.9 556.48 115.87C603.04 148.82 672.26 164.92 712.51 109.52C588.61 88.21 574.64 58.13 574.44 57.67C629.48 77.28 752.63 116.05 785.03 30.89Z" fill="url(#paint0_linear_1_6)"/>
<defs>
<linearGradient id="paint0_linear_1_6" x1="424.6" y1="-98.2596" x2="352.907" y2="192.288" gradientUnits="userSpaceOnUse">
<stop offset="1.70489e-07" stop-color="#FEFEFE"/>
<stop offset="0.8595" stop-color="white"/>
</linearGradient>
</defs>
</svg>
